<svg width="115" height="103" viewBox="0 0 115 103" fill="none" xmlns="http://www.w3.org/2000/svg">
<path d="M57.1114 103C88.6532 103 114.223 99.1928 114.223 94.4963C114.223 89.7998 88.6532 85.9926 57.1114 85.9926C25.5697 85.9926 0 89.7998 0 94.4963C0 99.1928 25.5697 103 57.1114 103Z" fill="#9CA4AB"/>
<path d="M57.8822 98.0259C84.9394 98.0259 106.874 76.0821 106.874 49.013C106.874 21.9439 84.9394 0 57.8822 0C30.825 0 8.89075 21.9439 8.89075 49.013C8.89075 76.0821 30.825 98.0259 57.8822 98.0259Z" fill="#D1D8DD"/>
<path d="M29.397 46.754C32.4427 46.754 34.9117 44.2839 34.9117 41.2369C34.9117 38.1899 32.4427 35.7198 29.397 35.7198C26.3514 35.7198 23.8824 38.1899 23.8824 41.2369C23.8824 44.2839 26.3514 46.754 29.397 46.754Z" fill="white"/>
<path d="M51.879 55.4749C54.9247 55.4749 57.3937 53.0048 57.3937 49.9578C57.3937 46.9108 54.9247 44.4408 51.879 44.4408C48.8334 44.4408 46.3644 46.9108 46.3644 49.9578C46.3644 53.0048 48.8334 55.4749 51.879 55.4749Z" fill="white"/>
<path d="M43.3987 56.3733C43.3987 56.3733 37.9888 48.2209 29.3621 54.4451L43.3987 56.3733Z" fill="white"/>
<path d="M43.3987 56.3733C43.3987 56.3733 37.9888 48.2209 29.3621 54.4451" stroke="white" stroke-width="3" stroke-linecap="round" stroke-linejoin="round"/>
<path d="M99.3832 22.1769C99.2964 16.41 80.9938 3.77941 69.9211 0.999145C57.5891 -2.09607 36.3881 2.61734 34.0324 6.93978L33.913 6.84204C33.4462 7.4285 29.473 12.7284 32.1652 18.1369C34.9117 23.6431 42.3478 24.7943 48.8069 24.892C50.3484 28.2805 53.4422 33.1894 58.8918 34.7967C63.2883 36.0999 67.9779 34.9487 72.8629 31.3648C76.467 33.374 82.5136 36.1868 88.0391 36.1868C90.08 36.1868 92.0557 35.8067 93.8034 34.851C96.3979 33.4391 99.4918 30.3005 99.5243 23.3281C99.5243 22.9263 99.4701 22.5462 99.3724 22.1769H99.3832Z" fill="#9CA4AB"/>
<path d="M84.5327 11.36C84.4893 8.49283 75.4032 2.22638 69.8994 0.836253C63.766 -0.705923 53.2468 1.63992 52.0744 3.79028L52.0093 3.73598C51.7813 4.02921 49.8056 6.65743 51.1409 9.35081C52.5087 12.0876 56.1996 12.6632 59.402 12.7067C60.1619 14.39 61.7034 16.8228 64.4064 17.6264C66.5884 18.2781 68.9224 17.7025 71.3432 15.9213C73.1343 16.9205 76.1414 18.3215 78.8878 18.3215C79.8974 18.3215 80.8853 18.126 81.7537 17.659C83.0455 16.9639 84.5762 15.4 84.5979 11.9356C84.5979 11.7401 84.5762 11.5446 84.5219 11.36H84.5327Z" fill="#BFC6CC"/>
<path d="M85.3903 34.1125C85.3903 34.1125 94.2268 10.6323 82.4484 14.3792C70.6701 18.126 71.5277 29.7901 85.3903 34.1125Z" fill="white" stroke="#D1D8DD" stroke-width="2" stroke-miterlimit="10"/>
<path d="M102.01 24.2295C94.2594 14.6181 83.6643 19.6356 84.6196 34.0908C84.6196 34.0908 109.761 33.841 102.01 24.2295Z" fill="white" stroke="#D1D8DD" stroke-width="2" stroke-miterlimit="10"/>
<path d="M97.744 47.0363C105.777 37.6638 98.8839 28.1936 84.815 31.8101C84.815 31.8101 89.7 56.4197 97.744 47.0363Z" fill="white" stroke="#D1D8DD" stroke-width="2" stroke-miterlimit="10"/>
<path d="M76.6407 48.2528C88.8641 50.1533 93.315 39.3255 82.8501 29.2905C82.8501 29.2905 64.4281 46.363 76.6407 48.2528Z" fill="white" stroke="#D1D8DD" stroke-width="2" stroke-miterlimit="10"/>
<path d="M66.9032 27.6614C65.8176 39.9554 76.9447 43.6588 86.2914 32.5703C86.2914 32.5703 67.9888 15.3674 66.9032 27.6614Z" fill="white" stroke="#D1D8DD" stroke-width="2" stroke-miterlimit="10"/>
</svg>
