<svg width="20" height="17" viewBox="0 0 20 17" fill="none" xmlns="http://www.w3.org/2000/svg">
<path d="M17.4143 0.5H6.12964C4.40321 0.5 3.53571 1.31239 3.53571 2.94468V7.44744C3.75857 7.42357 3.98214 7.40789 4.19643 7.40789C4.41964 7.40789 4.64286 7.42357 4.86571 7.44744V5.20765C4.86571 4.48219 5.27893 4.10378 6.00571 4.10378H17.5214C18.2571 4.10378 18.67 4.48219 18.67 5.20799V12.644C18.67 13.3773 18.2568 13.7478 17.5214 13.7478H9.34321C9.23607 14.1975 9.05393 14.6233 8.81464 15.0174H17.4143C19.1407 15.0174 20 14.1975 20 12.573V2.94468C20 1.32023 19.1407 0.5 17.4143 0.5ZM10.9543 6.93471H11.4414C11.7307 6.93471 11.8214 6.85595 11.8214 6.58016V6.11447C11.8214 5.83833 11.7307 5.75174 11.4414 5.75174H10.9543C10.665 5.75174 10.5657 5.83833 10.5657 6.11447V6.57948C10.5657 6.85561 10.665 6.93471 10.9543 6.93471ZM13.3004 6.93436H13.7875C14.0768 6.93436 14.1675 6.85561 14.1675 6.57982V6.11447C14.1675 5.83833 14.0768 5.75174 13.7875 5.75174H13.3004C13.0111 5.75174 12.9121 5.83833 12.9121 6.11447V6.57948C12.9121 6.85561 13.0111 6.93436 13.3004 6.93436ZM15.6464 6.93436H16.1339C16.4232 6.93436 16.5139 6.85561 16.5139 6.57982V6.11447C16.5139 5.83833 16.4229 5.75174 16.1339 5.75174H15.6464C15.3571 5.75174 15.2582 5.83833 15.2582 6.11447V6.57948C15.2582 6.85561 15.3571 6.93436 15.6464 6.93436ZM8.60786 9.51336H9.09536C9.38464 9.51336 9.47536 9.43461 9.47536 9.15881V8.69313C9.47536 8.41699 9.38464 8.33858 9.09536 8.33858H8.60786C8.31857 8.33858 8.21964 8.41699 8.21964 8.69313V9.15847C8.21964 9.43461 8.31893 9.51336 8.60786 9.51336ZM10.9543 9.51336H11.4414C11.7307 9.51336 11.8214 9.43461 11.8214 9.15881V8.69313C11.8214 8.41699 11.7307 8.33858 11.4414 8.33858H10.9543C10.665 8.33858 10.5657 8.41699 10.5657 8.69313V9.15847C10.5657 9.43461 10.665 9.51336 10.9543 9.51336ZM13.3004 9.51336H13.7875C14.0768 9.51336 14.1675 9.43461 14.1675 9.15881V8.69313C14.1675 8.41699 14.0768 8.33858 13.7875 8.33858H13.3004C13.0111 8.33858 12.9121 8.41699 12.9121 8.69313V9.15847C12.9121 9.43461 13.0111 9.51336 13.3004 9.51336ZM15.6464 9.51336H16.1339C16.4232 9.51336 16.5139 9.43461 16.5139 9.15881V8.69313C16.5139 8.41699 16.4229 8.33858 16.1339 8.33858H15.6464C15.3571 8.33858 15.2582 8.41699 15.2582 8.69313V9.15847C15.2582 9.43461 15.3571 9.51336 15.6464 9.51336ZM4.19643 16.5C6.47679 16.5 8.39321 14.6864 8.39321 12.4943C8.39321 10.3022 6.50143 8.48824 4.19679 8.48824C1.9 8.48824 0 10.3019 0 12.4939C0 14.702 1.9 16.5 4.19643 16.5ZM4.205 15.0965C3.91571 15.0965 3.65964 14.9069 3.65964 14.6154V12.975H2.08179C1.80107 12.975 1.56964 12.7544 1.56964 12.4943C1.56964 12.2338 1.80107 12.0133 2.08179 12.0133H3.65964V10.3806C3.65964 10.081 3.91571 9.89177 4.205 9.89177C4.48571 9.89177 4.74179 10.081 4.74179 10.3806V12.0129H6.31964C6.60071 12.0129 6.82357 12.2338 6.82357 12.4943C6.82357 12.7547 6.60071 12.975 6.32 12.975H4.74179V14.6154C4.74179 14.9069 4.48571 15.0965 4.205 15.0965ZM10.9543 12.0995H11.4414C11.7307 12.0995 11.8214 12.0126 11.8214 11.7368V11.2714C11.8214 10.9953 11.7307 10.9169 11.4414 10.9169H10.9543C10.665 10.9169 10.5657 10.9953 10.5657 11.2714V11.7368C10.5657 12.0129 10.665 12.0995 10.9543 12.0995ZM13.3004 12.0995H13.7875C14.0768 12.0995 14.1675 12.0126 14.1675 11.7368V11.2714C14.1675 10.9953 14.0768 10.9169 13.7875 10.9169H13.3004C13.0111 10.9169 12.9121 10.9953 12.9121 11.2714V11.7368C12.9121 12.0129 13.0111 12.0995 13.3004 12.0995Z" fill="#66707A"/>
</svg>
